<svg width="50" height="50" viewBox="0 0 50 50" fill="none" xmlns="http://www.w3.org/2000/svg">
<path d="M25 0C20.0555 0 15.222 1.46622 11.1108 4.21326C6.99953 6.96029 3.79521 10.8648 1.90302 15.4329C0.0108321 20.0011 -0.484251 25.0277 0.480379 29.8773C1.44501 34.7268 3.82603 39.1814 7.32234 42.6777C10.8187 46.174 15.2732 48.555 20.1227 49.5196C24.9723 50.4842 29.9989 49.9892 34.5671 48.097C39.1352 46.2048 43.0397 43.0005 45.7867 38.8892C48.5338 34.778 50 29.9445 50 25C49.9925 18.3719 47.3562 12.0174 42.6694 7.33058C37.9826 2.64379 31.6281 0.00747071 25 0ZM25 48.3871C20.3745 48.3871 15.8528 47.0155 12.0068 44.4456C8.16085 41.8758 5.16326 38.2233 3.39315 33.9498C1.62304 29.6764 1.15989 24.9741 2.06229 20.4374C2.96469 15.9007 5.19209 11.7336 8.46284 8.46282C11.7336 5.19208 15.9008 2.96468 20.4374 2.06228C24.9741 1.15988 29.6764 1.62303 33.9499 3.39314C38.2233 5.16325 41.8759 8.16084 44.4457 12.0068C47.0155 15.8528 48.3871 20.3745 48.3871 25C48.3801 31.2005 45.9138 37.145 41.5294 41.5294C37.145 45.9138 31.2005 48.38 25 48.3871Z" fill="white"/>
<path d="M24.9998 4.0332C20.8528 4.0332 16.7989 5.26294 13.3508 7.5669C9.90267 9.87087 7.21519 13.1456 5.62819 16.9769C4.04119 20.8083 3.62596 25.0242 4.435 29.0915C5.24405 33.1589 7.24103 36.895 10.1734 39.8274C13.1058 42.7598 16.8419 44.7567 20.9092 45.5658C24.9766 46.3748 29.1925 45.9596 33.0239 44.3726C36.8552 42.7856 40.1299 40.0981 42.4339 36.65C44.7379 33.2019 45.9676 29.148 45.9676 25.0009C45.9614 19.4418 43.7503 14.1122 39.8194 10.1813C35.8886 6.25048 30.5589 4.03939 24.9998 4.0332ZM24.9998 44.3558C21.1718 44.3558 17.4298 43.2206 14.2469 41.0939C11.064 38.9672 8.58324 35.9443 7.11832 32.4077C5.65339 28.8711 5.2701 24.9795 6.01691 21.225C6.76372 17.4705 8.60709 14.0218 11.3139 11.315C14.0207 8.60818 17.4694 6.76481 21.2239 6.018C24.9784 5.27119 28.87 5.65448 32.4066 7.1194C35.9433 8.58433 38.9661 11.0651 41.0928 14.248C43.2195 17.4309 44.3547 21.1729 44.3547 25.0009C44.3487 30.1323 42.3076 35.0518 38.6792 38.6803C35.0507 42.3087 30.1312 44.3498 24.9998 44.3558Z" fill="white"/>
<path d="M25.8065 24.6666V11.2908C25.8065 11.0769 25.7215 10.8718 25.5703 10.7206C25.4191 10.5693 25.2139 10.4844 25.0001 10.4844C24.7862 10.4844 24.581 10.5693 24.4298 10.7206C24.2786 10.8718 24.1936 11.0769 24.1936 11.2908V25.0005C24.1936 25.2144 24.2786 25.4195 24.4299 25.5707L29.2686 30.4094C29.4207 30.5563 29.6244 30.6376 29.8359 30.6357C30.0473 30.6339 30.2496 30.5491 30.3991 30.3995C30.5486 30.25 30.6334 30.0478 30.6353 29.8363C30.6371 29.6249 30.5558 29.4211 30.4089 29.269L25.8065 24.6666Z" fill="white"/>
<path d="M25.0001 8.87053C25.2139 8.87053 25.4191 8.78556 25.5703 8.63432C25.7215 8.48308 25.8065 8.27796 25.8065 8.06407V7.25762C25.8065 7.04374 25.7215 6.83862 25.5703 6.68738C25.4191 6.53614 25.2139 6.45117 25.0001 6.45117C24.7862 6.45117 24.581 6.53614 24.4298 6.68738C24.2786 6.83862 24.1936 7.04374 24.1936 7.25762V8.06407C24.1936 8.27796 24.2786 8.48308 24.4298 8.63432C24.581 8.78556 24.7862 8.87053 25.0001 8.87053Z" fill="white"/>
<path d="M25.0001 41.1289C24.7862 41.1289 24.581 41.2139 24.4298 41.3651C24.2786 41.5163 24.1936 41.7215 24.1936 41.9354V42.7418C24.1936 42.9557 24.2786 43.1608 24.4298 43.3121C24.581 43.4633 24.7862 43.5483 25.0001 43.5483C25.2139 43.5483 25.4191 43.4633 25.5703 43.3121C25.7215 43.1608 25.8065 42.9557 25.8065 42.7418V41.9354C25.8065 41.7215 25.7215 41.5163 25.5703 41.3651C25.4191 41.2139 25.2139 41.1289 25.0001 41.1289Z" fill="white"/>
<path d="M8.06444 24.1934H7.25799C7.04411 24.1934 6.83898 24.2783 6.68774 24.4296C6.5365 24.5808 6.45154 24.7859 6.45154 24.9998C6.45154 25.2137 6.5365 25.4188 6.68774 25.5701C6.83898 25.7213 7.04411 25.8063 7.25799 25.8063H8.06444C8.27833 25.8063 8.48345 25.7213 8.63469 25.5701C8.78593 25.4188 8.87089 25.2137 8.87089 24.9998C8.87089 24.7859 8.78593 24.5808 8.63469 24.4296C8.48345 24.2783 8.27833 24.1934 8.06444 24.1934Z" fill="white"/>
<path d="M42.7419 24.1934H41.9355C41.7216 24.1934 41.5165 24.2783 41.3652 24.4296C41.214 24.5808 41.129 24.7859 41.129 24.9998C41.129 25.2137 41.214 25.4188 41.3652 25.5701C41.5165 25.7213 41.7216 25.8063 41.9355 25.8063H42.7419C42.9558 25.8063 43.1609 25.7213 43.3122 25.5701C43.4634 25.4188 43.5484 25.2137 43.5484 24.9998C43.5484 24.7859 43.4634 24.5808 43.3122 24.4296C43.1609 24.2783 42.9558 24.1934 42.7419 24.1934Z" fill="white"/>
<path d="M13.0243 11.8849C12.9499 11.8078 12.861 11.7464 12.7626 11.7041C12.6642 11.6619 12.5584 11.6396 12.4513 11.6387C12.3442 11.6378 12.238 11.6582 12.1389 11.6987C12.0398 11.7393 11.9497 11.7992 11.874 11.8749C11.7983 11.9506 11.7384 12.0406 11.6979 12.1397C11.6573 12.2389 11.6369 12.3451 11.6378 12.4521C11.6388 12.5592 11.661 12.665 11.7033 12.7634C11.7456 12.8618 11.807 12.9508 11.884 13.0252L12.4542 13.5954C12.6063 13.7423 12.81 13.8235 13.0214 13.8217C13.2329 13.8199 13.4352 13.7351 13.5847 13.5855C13.7342 13.436 13.819 13.2337 13.8209 13.0223C13.8227 12.8108 13.7414 12.6071 13.5945 12.455L13.0243 11.8849Z" fill="white"/>
<path d="M37.5459 36.4041C37.3938 36.2572 37.1901 36.1759 36.9786 36.1778C36.7672 36.1796 36.5649 36.2644 36.4154 36.4139C36.2659 36.5635 36.1811 36.7657 36.1792 36.9772C36.1774 37.1886 36.2587 37.3923 36.4056 37.5444L36.9757 38.1146C37.1278 38.2615 37.3316 38.3428 37.543 38.341C37.7544 38.3391 37.9567 38.2543 38.1062 38.1048C38.2558 37.9553 38.3406 37.753 38.3424 37.5415C38.3442 37.3301 38.263 37.1264 38.1161 36.9743L37.5459 36.4041Z" fill="white"/>
<path d="M12.4542 36.4041L11.884 36.9743C11.807 37.0487 11.7456 37.1377 11.7033 37.236C11.661 37.3344 11.6388 37.4403 11.6378 37.5473C11.6369 37.6544 11.6573 37.7606 11.6979 37.8597C11.7384 37.9588 11.7983 38.0489 11.874 38.1246C11.9497 38.2003 12.0398 38.2602 12.1389 38.3007C12.238 38.3413 12.3442 38.3617 12.4513 38.3608C12.5584 38.3598 12.6642 38.3376 12.7626 38.2953C12.861 38.2531 12.9499 38.1916 13.0243 38.1146L13.5945 37.5444C13.7414 37.3923 13.8227 37.1886 13.8209 36.9772C13.819 36.7657 13.7342 36.5635 13.5847 36.4139C13.4352 36.2644 13.2329 36.1796 13.0214 36.1778C12.81 36.1759 12.6063 36.2572 12.4542 36.4041Z" fill="white"/>
<path d="M36.9758 11.8849L36.4056 12.455C36.3286 12.5294 36.2672 12.6184 36.2249 12.7168C36.1826 12.8152 36.1604 12.921 36.1595 13.0281C36.1585 13.1352 36.1789 13.2414 36.2195 13.3405C36.26 13.4396 36.3199 13.5296 36.3956 13.6054C36.4713 13.6811 36.5614 13.741 36.6605 13.7815C36.7596 13.8221 36.8658 13.8425 36.9729 13.8415C37.08 13.8406 37.1858 13.8183 37.2842 13.7761C37.3826 13.7338 37.4716 13.6724 37.5459 13.5954L38.1161 13.0252C38.1931 12.9508 38.2546 12.8618 38.2968 12.7634C38.3391 12.665 38.3613 12.5592 38.3623 12.4521C38.3632 12.3451 38.3428 12.2389 38.3023 12.1397C38.2617 12.0406 38.2018 11.9506 38.1261 11.8749C38.0504 11.7992 37.9603 11.7393 37.8612 11.6987C37.7621 11.6582 37.6559 11.6378 37.5488 11.6387C37.4418 11.6396 37.3359 11.6619 37.2376 11.7041C37.1392 11.7464 37.0502 11.8078 36.9758 11.8849Z" fill="white"/>
</svg>
