<svg width="50" height="50" viewBox="0 0 50 50" fill="none" xmlns="http://www.w3.org/2000/svg">
<path d="M44.9347 3.01536C44.7622 2.10184 44.2363 1.2963 43.474 0.777268L43.2116 0.597164C41.624 -0.481882 39.473 -0.0586188 38.4 1.54419L37.2839 3.22463C37.2228 3.20453 37.1597 3.19192 37.0954 3.18719H6.79732C6.357 3.18719 6 3.54858 6 3.99431V49.1929C6 49.639 6.357 50 6.79732 50H41.8794C42.3197 50 42.6767 49.639 42.6767 49.1929V8.2431L44.406 5.64756C44.9226 4.8767 45.113 3.92889 44.9347 3.01536ZM21.2546 37.5051L17.9002 35.1929L37.8538 5.24873L41.2183 7.54594L21.2546 37.5051ZM14.8406 40.3851L17.6067 42.2745L13.6847 44.9331L14.8406 40.3851ZM18.8217 41.156L15.458 38.8619L17.0095 36.5344L20.3638 38.8458L18.8217 41.156ZM41.082 48.3858H7.59464V4.80143H36.2273L13.6902 38.6247C13.668 38.6669 13.6501 38.7106 13.636 38.7563C13.6131 38.7942 13.594 38.834 13.5784 38.8757L11.6198 46.5796C11.5372 46.9039 11.661 47.246 11.9308 47.4395C12.201 47.633 12.5608 47.6378 12.8356 47.4514L19.4812 42.9476C19.5097 42.9227 19.5365 42.8959 19.561 42.8668C19.6117 42.8274 19.6576 42.7813 19.6973 42.7304L19.702 42.7225L41.082 10.6361V48.3858ZM43.0843 4.74507L42.1114 6.20442L38.7469 3.90721L39.7194 2.44707C40.2976 1.58044 41.4597 1.35108 42.3173 1.93474L42.5786 2.11484C43.4362 2.69969 43.6624 3.87765 43.0843 4.74507Z" fill="#EC001C"/>
</svg>
