<svg width="22" height="27" viewBox="0 0 22 27" fill="none" xmlns="http://www.w3.org/2000/svg">
<path fill-rule="evenodd" clip-rule="evenodd" d="M20.25 10.5C20.25 12.0418 19.7041 13.7652 18.7777 15.5517C17.8581 17.3252 16.6146 19.0638 15.3421 20.6089C14.0733 22.1497 12.8002 23.4686 11.8428 24.4032C11.6076 24.6328 11.392 24.8387 11.2008 25.0185C11.0232 24.8659 10.8253 24.6928 10.6109 24.5005C9.66123 23.6488 8.39795 22.4302 7.13889 20.9613C4.56444 17.9578 2.25 14.1866 2.25 10.5C2.25 5.52944 6.27944 1.5 11.25 1.5C16.2206 1.5 20.25 5.52944 20.25 10.5ZM21.75 10.5C21.75 18 11.25 27 11.25 27C11.25 27 0.75 19 0.75 10.5C0.75 4.70101 5.45101 0 11.25 0C17.049 0 21.75 4.70101 21.75 10.5ZM14.25 10.5C14.25 12.1569 12.9069 13.5 11.25 13.5C9.59315 13.5 8.25 12.1569 8.25 10.5C8.25 8.84315 9.59315 7.5 11.25 7.5C12.9069 7.5 14.25 8.84315 14.25 10.5ZM15.75 10.5C15.75 12.9853 13.7353 15 11.25 15C8.76472 15 6.75 12.9853 6.75 10.5C6.75 8.01472 8.76472 6 11.25 6C13.7353 6 15.75 8.01472 15.75 10.5Z" fill="white"/>
</svg>
