<svg width="22" height="27" viewBox="0 0 22 27" fill="none" xmlns="http://www.w3.org/2000/svg">
<path fill-rule="evenodd" clip-rule="evenodd" d="M10.5 19.5C5.52944 19.5 1.5 15.4706 1.5 10.5C1.5 5.52944 5.52944 1.5 10.5 1.5C15.4706 1.5 19.5 5.52944 19.5 10.5C19.5 13.2368 18.2803 15.6871 16.3495 17.3401C14.7755 18.6876 12.7346 19.5 10.5 19.5ZM21 10.5C21 13.6934 19.5744 16.5538 17.325 18.4796C17.1651 18.6165 17.001 18.7486 16.833 18.8759L21.6103 25.5641C21.8511 25.9011 21.773 26.3695 21.4359 26.6103C21.0989 26.8511 20.6305 26.773 20.3897 26.4359L15.5745 19.6946C14.0704 20.5265 12.3405 21 10.5 21C4.70101 21 0 16.299 0 10.5C0 4.70101 4.70101 0 10.5 0C16.299 0 21 4.70101 21 10.5Z" fill="white"/>
</svg>
