<svg width="50" height="50" viewBox="0 0 50 50" fill="none" xmlns="http://www.w3.org/2000/svg">
<path fill-rule="evenodd" clip-rule="evenodd" d="M46.7742 28.8065H49.1935C49.4074 28.8065 49.6126 28.8914 49.7638 29.0427C49.915 29.1939 50 29.399 50 29.6129V36.0645C50 36.2784 49.915 36.4835 49.7638 36.6348C49.6126 36.786 49.4074 36.871 49.1935 36.871H46.7742V42.5161C46.7731 43.5852 46.348 44.6102 45.592 45.3662C44.836 46.1222 43.811 46.5473 42.7419 46.5484H4.03226C2.96316 46.5473 1.93816 46.1222 1.1822 45.3662C0.426236 44.6102 0.00106749 43.5852 0 42.5161V15.0968C0.00106749 14.0277 0.426236 13.0027 1.1822 12.2467C1.93816 11.4908 2.96316 11.0656 4.03226 11.0645H6.45161V7.03226C6.45268 5.96316 6.87785 4.93816 7.63381 4.1822C8.38978 3.42624 9.41478 3.00107 10.4839 3H36.2903C37.3594 3.00107 38.3844 3.42624 39.1404 4.1822C39.8963 4.93816 40.3215 5.96316 40.3226 7.03226V11.0645H42.7419C43.811 11.0656 44.836 11.4908 45.592 12.2467C46.348 13.0027 46.7731 14.0277 46.7742 15.0968V28.8065ZM4.03226 20.7419C3.15929 20.7428 2.30986 20.4589 1.6129 19.9333V23.1613H45.1613C45.1605 22.5199 44.9054 21.9049 44.4519 21.4514C43.9983 20.9978 43.3834 20.7427 42.7419 20.7419H4.03226ZM8.06452 13.5H8V7H8.06477C8.07399 6.37028 8.32815 5.76838 8.77407 5.32246C9.2276 4.86893 9.84248 4.61376 10.4839 4.6129H36.2903C36.9317 4.61376 37.5466 4.86893 38.0001 5.32246C38.446 5.76838 38.7002 6.37028 38.7094 7H38.7463V13.5H38.7097V19.129H8.06452V13.5ZM44.4517 13.387C43.9982 12.9334 43.3833 12.6783 42.7419 12.6774H40.3226V19.129H42.7419C43.6149 19.1281 44.4643 19.412 45.1613 19.9377V15.0968C45.1604 14.4554 44.9053 13.8405 44.4517 13.387ZM6.45161 12.6774H4.03226C3.39087 12.6783 2.77599 12.9334 2.32246 13.387C1.86893 13.8405 1.61376 14.4554 1.6129 15.0968V16.7097C1.61365 17.3511 1.86879 17.966 2.32234 18.4196C2.7759 18.8731 3.39083 19.1283 4.03226 19.129H6.45161V12.6774ZM4.03226 44.9355H42.7419C43.3833 44.9346 43.9982 44.6795 44.4517 44.2259C44.9053 43.7724 45.1604 43.1575 45.1613 42.5161H1.6129C1.61376 43.1575 1.86893 43.7724 2.32246 44.2259C2.77599 44.6795 3.39087 44.9346 4.03226 44.9355ZM1.6129 40.9032H45.1613V36.871H41.9355C41.7216 36.871 41.5165 36.786 41.3652 36.6348C41.214 36.4835 41.129 36.2784 41.129 36.0645V29.6129C41.129 29.399 41.214 29.1939 41.3652 29.0427C41.5165 28.8914 41.7216 28.8065 41.9355 28.8065H45.1613V24.7742H1.6129V40.9032ZM42.7419 35.2581H48.3871V30.4194H42.7419V35.2581Z" fill="#EC001C"/>
</svg>
